<svg xmlns="http://www.w3.org/2000/svg" xml:space="preserve" width="1500" height="1500" data-id="lg_lPn2fPTDtdiEFDKGAP" data-version="1"><path fill="#033445" stroke="transparent" d="M0 0h1500v1500H0z"/><g data-padding="20"><g transform="translate(-1024.58 -1022.245)scale(2.27187)"><path fill="#f2dfcf" stroke="transparent" d="M796.391 821.803q4.22 3.16 4.22 10.18t-4.57 15.27q-4.56 8.25-11.58 13.69t-13.69 5.44q-14.74 0-18.95-27.03-1.41-9.83-1.41-22.11 0-6.32.71-19.66l.35-19.65q0-15.45.7-46.34 1.05-31.23 1.05-62.12-8.77 23.51-22.11 64.58-3.86 11.94-7.72 19.66t-11.24 13.69q-7.02 5.96-14.04 5.96-13.33 0-22.11-17.9-8.77-17.9-15.09-40.36l-3.16 25.97q-4.56 35.1-8.25 56.16-3.68 21.06-10.7 42.12-5.27 15.8-12.11 26.85-6.85 11.06-17.73 11.06-12.28 0-12.28-12.64 0-8.77 5.26-20-.35.7-.53 1.23-.17.52-.52.52l2.1-6.67q3.16-10.53 5.62-24.92 5.26-26.67 9.83-60.02l8.42-61.42q3.86-33 8.43-63.54 2.45-17.9 5.44-28.25 2.98-10.36 11.05-19.83 3.86-4.57 8.95-7.37 5.09-2.81 9.66-2.81 7.72 0 11.58 7.02 2.81 5.26 3.51 17.2l1.05 8.42q2.46 12.99 6.32 28.43 9.48 37.91 17.2 58.27 2.81-8.43 3.51-10.18 9.83-28.78 17.72-47.74 7.9-18.95 19.13-35.1 5.27-7.37 11.94-12.81t13.34-5.44q7.37 0 10.7 5.09 3.34 5.09 4.21 10.18.88 5.09 1.93 17.02 1.41 15.8 1.41 36.51 0 15.09-1.41 45.98-.35 6.32-.7 15.79-.35 9.48-.35 22.12l-.35 23.86q0 11.59.7 34.05l-.35 11.23q0 16.15 4.91 20.36m70.92-23.87q36.85-28.43 57.91-60.37-28.08-8.42-56.51-34.05-.7 31.95-1.4 94.42m101.44-79.67q2.45 1.75 2.45 4.56 0 2.46-1.4 4.91-18.6 35.81-49.14 63.53-30.54 27.73-74.06 55.46-4.21 2.46-9.48 4.39-5.26 1.93-10.18 1.93-5.26 0-9.12-2.81-4.22-3.16-4.22-7.72 0-5.97 6.67-10.53.7-.35 1.41-1.05.7-.7 2.1-1.41l1.41-87.04q.7-28.44 1.4-86.7-.35-.7-.35-2.46 0-.7.7-3.51v-3.86q.35-6.67 9.13-11.41 8.77-4.74 18.6-4.74 6.67 0 10.71 2.46 4.03 2.46 4.03 7.72v3.51q42.47 58.62 92.67 71.61 5.26 1.75 6.67 3.16"/><rect width="378.58" height="396.63" x="190.531" y="173.393" fill="none" rx="0" ry="0" transform="translate(400.49 400.51)"/><path fill="#f2dfcf" stroke="transparent" d="M796.391 839.903q4.22 3.16 4.22 10.18t-4.57 15.27q-4.56 8.25-11.58 13.69t-13.69 5.44q-14.74 0-18.95-27.03-1.41-9.83-1.41-22.11 0-6.32.71-19.66l.35-19.65q0-15.45.7-46.34 1.05-31.23 1.05-62.12-8.77 23.51-22.11 64.58-3.86 11.94-7.72 19.66t-11.24 13.69q-7.02 5.96-14.04 5.96-13.33 0-22.11-17.9-8.77-17.9-15.09-40.36l-3.16 25.97q-4.56 35.1-8.25 56.16-3.68 21.06-10.7 42.12-5.27 15.8-12.11 26.85-6.85 11.06-17.73 11.06-12.28 0-12.28-12.64 0-8.77 5.26-20-.35.7-.53 1.23-.17.52-.52.52l2.1-6.67q3.16-10.53 5.62-24.92 5.26-26.67 9.83-60.02l8.42-61.42q3.86-33 8.43-63.54 2.45-17.9 5.44-28.25 2.98-10.36 11.05-19.83 3.86-4.57 8.95-7.37 5.09-2.81 9.66-2.81 7.72 0 11.58 7.02 2.81 5.26 3.51 17.2l1.05 8.42q2.46 12.99 6.32 28.43 9.48 37.91 17.2 58.27 2.81-8.43 3.51-10.18 9.83-28.78 17.72-47.74 7.9-18.95 19.13-35.1 5.27-7.37 11.94-12.81t13.34-5.44q7.37 0 10.7 5.09 3.34 5.09 4.21 10.18.88 5.09 1.93 17.02 1.41 15.8 1.41 36.51 0 15.09-1.41 45.98-.35 6.32-.7 15.79-.35 9.48-.35 22.12l-.35 23.86q0 11.59.7 34.05l-.35 11.23q0 16.15 4.91 20.36m70.92-23.87q36.85-28.43 57.91-60.37-28.08-8.42-56.51-34.05-.7 31.95-1.4 94.42m101.44-79.67q2.45 1.75 2.45 4.56 0 2.46-1.4 4.91-18.6 35.81-49.14 63.53-30.54 27.73-74.06 55.46-4.21 2.46-9.48 4.39-5.26 1.93-10.18 1.93-5.26 0-9.12-2.81-4.22-3.16-4.22-7.72 0-5.97 6.67-10.53.7-.35 1.41-1.05.7-.7 2.1-1.41l1.41-87.04q.7-28.44 1.4-86.7-.35-.7-.35-2.46 0-.7.7-3.51v-3.86q.35-6.67 9.13-11.41 8.77-4.74 18.6-4.74 6.67 0 10.71 2.46 4.03 2.46 4.03 7.72v3.51q42.47 58.62 92.67 71.61 5.26 1.75 6.67 3.16"/><rect width="378.58" height="396.63" x="190.531" y="173.393" fill="none" rx="0" ry="0" transform="translate(400.49 418.6)"/></g><path fill="transparent" stroke="transparent" stroke-width="2.398" d="M294.365 250h911.27v1000h-911.27z"/></g></svg>